<svg width="23" height="23" viewBox="0 0 23 23" fill="none" xmlns="http://www.w3.org/2000/svg">
<g opacity="0.5">
<path d="M15.0941 2.875C14.0946 2.875 13.112 3.26245 12.3539 4.02051L5.61563 10.7588C3.47903 12.8954 3.47903 16.3712 5.61563 18.5078C7.75223 20.6444 11.2281 20.6444 13.3647 18.5078L17.8568 14.0156L16.8461 13.0049L12.3539 17.4971C10.7676 19.0834 8.21268 19.0834 6.62637 17.4971C5.04007 15.9108 5.04007 13.3558 6.62637 11.7695L13.3647 5.03125C14.3305 4.06543 15.8803 4.06543 16.8461 5.03125C17.8119 5.99707 17.8119 7.54688 16.8461 8.5127L10.1078 15.251C9.76248 15.5963 9.2178 15.5963 8.87247 15.251C8.52713 14.9056 8.52713 14.361 8.87247 14.0156L15.0492 7.83887L14.0385 6.82813L7.86172 13.0049C6.96609 13.9005 6.96609 15.3661 7.86172 16.2617C8.75735 17.1573 10.2229 17.1573 11.1186 16.2617L17.8568 9.52344C19.373 8.00732 19.373 5.53662 17.8568 4.02051C17.0988 3.26245 16.0937 2.875 15.0941 2.875Z" fill="white"/>
</g>
</svg>
