<svg width="23" height="23" viewBox="0 0 23 23" fill="none" xmlns="http://www.w3.org/2000/svg">
<path d="M11.5 4.3125C10.7054 4.3125 10.0625 4.95544 10.0625 5.75C10.0625 6.54456 10.7054 7.1875 11.5 7.1875C12.2946 7.1875 12.9375 6.54456 12.9375 5.75C12.9375 4.95544 12.2946 4.3125 11.5 4.3125ZM11.5 10.0625C10.7054 10.0625 10.0625 10.7054 10.0625 11.5C10.0625 12.2946 10.7054 12.9375 11.5 12.9375C12.2946 12.9375 12.9375 12.2946 12.9375 11.5C12.9375 10.7054 12.2946 10.0625 11.5 10.0625ZM11.5 15.8125C10.7054 15.8125 10.0625 16.4554 10.0625 17.25C10.0625 18.0446 10.7054 18.6875 11.5 18.6875C12.2946 18.6875 12.9375 18.0446 12.9375 17.25C12.9375 16.4554 12.2946 15.8125 11.5 15.8125Z" fill="white"/>
</svg>
