<svg width="57" height="57" viewBox="0 0 57 57" fill="none" xmlns="http://www.w3.org/2000/svg">
<path d="M20.2925 10.885V1.45459H55.4607V22.4917H47.035L37.8766 31.5594V22.4917H32.0152" stroke="white" stroke-width="2.17625"/>
<ellipse cx="31.6486" cy="13.4239" rx="1.09901" ry="1.08813" fill="white"/>
<ellipse cx="37.5099" cy="13.4239" rx="1.09901" ry="1.08813" fill="white"/>
<ellipse cx="43.3715" cy="13.4239" rx="1.09901" ry="1.08813" fill="white"/>
<path d="M27.9963 27.9323C27.9963 33.6374 23.7991 38.0882 18.827 38.0882C13.8548 38.0882 9.65771 33.6374 9.65771 27.9323C9.65771 22.2272 13.8548 17.7765 18.827 17.7765C23.7991 17.7765 27.9963 22.2272 27.9963 27.9323Z" stroke="white" stroke-width="2.17625"/>
<path d="M8.93579 27.5696C11.0117 28.295 16.1892 28.5127 20.2922 23.5798C21.4645 28.2225 26.3978 28.1741 28.7179 27.5696" stroke="white" stroke-width="2.17625"/>
<path d="M14.4309 37.3627V42.4407C10.157 43.4079 1.60913 46.1403 1.60913 49.3321C1.60913 52.524 1.60913 54.531 1.60913 55.1355H36.7774V50.3454C36.7774 49.6826 36.6073 49.0238 36.1833 48.5144C34.5328 46.5316 30.5687 43.448 23.9556 42.4407C23.9556 38.6685 23.9556 36.7582 23.9556 36.6373" stroke="white" stroke-width="2.17625"/>
</svg>
