<svg width="23" height="23" viewBox="0 0 23 23" fill="none" xmlns="http://www.w3.org/2000/svg">
<g opacity="0.5">
<path d="M15.0937 2.875C14.0941 2.875 13.1115 3.26245 12.3534 4.02051L5.61514 10.7588C3.47855 12.8954 3.47855 16.3712 5.61514 18.5078C7.75174 20.6444 11.2276 20.6444 13.3642 18.5078L17.8564 14.0156L16.8456 13.0049L12.3534 17.4971C10.7671 19.0834 8.21219 19.0834 6.62588 17.4971C5.03958 15.9108 5.03958 13.3558 6.62588 11.7695L13.3642 5.03125C14.33 4.06543 15.8798 4.06543 16.8456 5.03125C17.8114 5.99707 17.8114 7.54688 16.8456 8.5127L10.1073 15.251C9.76199 15.5963 9.21732 15.5963 8.87198 15.251C8.52664 14.9056 8.52664 14.361 8.87198 14.0156L15.0487 7.83887L14.038 6.82813L7.86124 13.0049C6.96561 13.9005 6.96561 15.3661 7.86124 16.2617C8.75687 17.1573 10.2224 17.1573 11.1181 16.2617L17.8564 9.52344C19.3725 8.00732 19.3725 5.53662 17.8564 4.02051C17.0983 3.26245 16.0932 2.875 15.0937 2.875Z" fill="#343434"/>
</g>
</svg>
