<svg width="56" height="57" viewBox="0 0 56 57" fill="none" xmlns="http://www.w3.org/2000/svg">
<path d="M19.9529 10.885V1.45459H54.7729V22.4917H46.4306L37.3629 31.5594V22.4917H31.5596" stroke="#29B4AD" stroke-width="2.17625"/>
<circle cx="31.1965" cy="13.4241" r="1.08813" fill="#29B4AD"/>
<circle cx="37" cy="13.4241" r="1.08813" fill="#29B4AD"/>
<circle cx="42.8035" cy="13.4241" r="1.08813" fill="#29B4AD"/>
<path d="M27.5698 27.9324C27.5698 33.6482 23.4085 38.0883 18.502 38.0883C13.5956 38.0883 9.43432 33.6482 9.43432 27.9324C9.43432 22.2167 13.5956 17.7766 18.502 17.7766C23.4085 17.7766 27.5698 22.2167 27.5698 27.9324Z" stroke="#29B4AD" stroke-width="2.17625"/>
<path d="M8.70874 27.5694C10.7641 28.2948 15.8904 28.5124 19.9527 23.5796C21.1134 28.2223 25.9979 28.1739 28.295 27.5694" stroke="#29B4AD" stroke-width="2.17625"/>
<path d="M14.1494 37.3626V42.4405C9.91779 43.4078 1.45459 46.1402 1.45459 49.332C1.45459 52.5239 1.45459 54.5308 1.45459 55.1354H36.2746V50.3367C36.2746 49.6793 36.1074 49.0256 35.6896 48.5181C34.0574 46.5355 30.1317 43.4485 23.5798 42.4405C23.5798 38.6684 23.5798 36.7581 23.5798 36.6372" stroke="#29B4AD" stroke-width="2.17625"/>
</svg>
