<svg width="58" height="47" viewBox="0 0 58 47" fill="none" xmlns="http://www.w3.org/2000/svg">
<mask id="path-1-inside-1_447_667" fill="white">
<rect x="16.3232" y="0.0908203" width="40.9952" height="26.9638" rx="0.728751"/>
</mask>
<rect x="16.3232" y="0.0908203" width="40.9952" height="26.9638" rx="0.728751" stroke="#29B4AD" stroke-width="4.37251" mask="url(#path-1-inside-1_447_667)"/>
<path d="M13.395 10.2935H10.0974C9.69493 10.2935 9.36865 10.6197 9.36865 11.0222V35.4354C9.36865 35.8378 9.69493 36.1641 10.0974 36.1641H48.9031C49.3055 36.1641 49.6318 35.8378 49.6318 35.4354V30.3341" stroke="#29B4AD" stroke-width="2.18625"/>
<path d="M5.70844 19.0386H2.41088C2.0084 19.0386 1.68213 19.3648 1.68213 19.7673V44.1805C1.68213 44.583 2.0084 44.9092 2.41088 44.9092H41.2165C41.619 44.9092 41.9453 44.583 41.9453 44.1805V39.0792" stroke="#29B4AD" stroke-width="2.18625"/>
</svg>
